<?xml version="1.0" standalone="no"?><!DOCTYPE svg PUBLIC "-//W3C//DTD SVG 1.1//EN" "http://www.w3.org/Graphics/SVG/1.1/DTD/svg11.dtd"><svg t="1758935839808" class="icon" viewBox="0 0 1024 1024" version="1.1" xmlns="http://www.w3.org/2000/svg" p-id="1694" xmlns:xlink="http://www.w3.org/1999/xlink" width="200" height="200"><path d="M352.1536 248.0128A331.1104 331.1104 0 0 0 274.432 318.7712a322.3552 322.3552 0 0 0-51.0976 93.0816A320.256 320.256 0 0 0 204.8 519.8848c0 44.032 8.5504 86.016 25.7024 126.0544a326.6048 326.6048 0 0 0 69.3248 103.7824 325.9904 325.9904 0 0 0 103.7312 69.2736 317.44 317.44 0 0 0 126.1568 25.7536c37.2224 0 73.216-6.144 108.032-18.5344a320.256 320.256 0 0 0 163.84-128.8192c19.8144-29.8496 47.5648-84.48 56.3712-119.1936-9.1136 0.768-94.4128 9.0624-147.6608-7.0144-53.1968-16.128-111.0016-49.3568-143.616-81.92-32.768-32.768-59.2384-68.864-73.3696-110.08-21.504-54.4768-27.3408-68.8128-15.7696-175.7696 1.1776-11.3152-95.5392 24.7808-125.3888 44.544zM525.9776 153.6c8.3968 0 16.5888 0.3072 24.7296 0.9216a260.096 260.096 0 0 0-4.0448 212.0704 261.632 261.632 0 0 0 55.6032 83.1488c23.2448 23.2448 50.944 41.7792 83.1488 55.552a254.8736 254.8736 0 0 0 101.2224 20.6848 260.608 260.608 0 0 0 110.7968-24.7296 369.408 369.408 0 0 1-12.4928 123.5968 370.4832 370.4832 0 0 1-37.376 89.1392 371.5584 371.5584 0 0 1-58.368 75.264 375.552 375.552 0 0 1-75.1616 58.3168 373.5552 373.5552 0 0 1-376.1664 0 376.9856 376.9856 0 0 1-75.2128-58.368 371.712 371.712 0 0 1-58.2656-75.2128 370.2784 370.2784 0 0 1-37.4272-89.088A369.5104 369.5104 0 0 1 153.6 525.9264c0-33.7408 4.4544-66.7136 13.3632-98.9184 8.96-32.1536 21.4016-61.952 37.376-89.1392a371.8656 371.8656 0 0 1 58.368-75.2128 369.4592 369.4592 0 0 1 75.1616-58.368 369.664 369.664 0 0 1 89.1904-37.376A369.7664 369.7664 0 0 1 525.9776 153.6z" fill="#2c2c2c" p-id="1695"></path></svg>