<?xml version="1.0" standalone="no"?><!DOCTYPE svg PUBLIC "-//W3C//DTD SVG 1.1//EN" "http://www.w3.org/Graphics/SVG/1.1/DTD/svg11.dtd"><svg t="1758935885025" class="icon" viewBox="0 0 1024 1024" version="1.1" xmlns="http://www.w3.org/2000/svg" p-id="2927" xmlns:xlink="http://www.w3.org/1999/xlink" width="200" height="200"><path d="M512.470163 806.969989a293.645593 293.645593 0 1 1 293.645593-293.645593 293.58863 293.58863 0 0 1-293.645593 293.645593z m0-509.992046a216.460379 216.460379 0 1 0 216.460379 216.460379 216.460379 216.460379 0 0 0-216.460379-216.460379z m1.253192-146.224682a38.621089 38.621089 0 0 1-38.621089-38.621088V38.706534a38.621089 38.621089 0 0 1 77.299141 0v73.425639a38.621089 38.621089 0 0 1-38.621089 38.450198z m0 873.189776a38.564125 38.564125 0 0 1-38.621089-38.621089v-73.425639a38.678052 38.678052 0 1 1 77.299141-0.911412v74.337051a38.621089 38.621089 0 0 1-38.678052 38.621089z m471.370956-473.307708h-73.368675a38.678052 38.678052 0 1 1-0.968376-77.29914h74.337051a38.621089 38.621089 0 0 1 0 77.29914z m-873.189775 0H38.592823a38.621089 38.621089 0 0 1 0-77.29914h73.368676a38.621089 38.621089 0 0 1 0 77.29914z m682.647679-282.76561a38.621089 38.621089 0 0 1-27.342364-65.963452l51.950491-51.950491a38.621089 38.621089 0 0 1 54.627764 54.627764l-51.950491 51.950491a38.621089 38.621089 0 0 1-27.228437 11.392651zM177.184429 885.408394a38.621089 38.621089 0 0 1-27.342364-65.963452l51.950491-51.950491a38.621089 38.621089 0 0 1 54.627764 54.627764l-51.95049 51.893528a38.450199 38.450199 0 0 1-27.285401 11.392651z m669.37524 0a38.848942 38.848942 0 0 1-27.342364-11.392651l-51.893527-51.950491a38.621089 38.621089 0 0 1 54.285984-55.026507l0.398743 0.398743 51.893528 51.893527a38.678052 38.678052 0 0 1-27.285401 66.020416zM229.077957 267.983645a38.621089 38.621089 0 0 1-27.285401-11.392651l-51.950491-51.950491a38.621089 38.621089 0 0 1 54.229022-55.08347l0.398743 0.398743 51.95049 51.950491a38.678052 38.678052 0 0 1-27.342363 65.963452z" fill="#ffffff" p-id="2928"></path></svg>